<svg xmlns="http://www.w3.org/2000/svg" width="570.02" height="135.29" viewBox="0 0 570.02 135.29"><defs><style>.cls-1{fill:#fff;}.cls-2{fill:#80c242;}.cls-2,.cls-3,.cls-4,.cls-5,.cls-6{mix-blend-mode:multiply;}.cls-3{fill:#f26f21;}.cls-4{fill:#eb008b;}.cls-5{fill:#00aeac;}.cls-7{isolation:isolate;}</style></defs><g class="cls-7"><g id="Layer_2"><g id="Layer_1-2"><g><g><path d="M215.19,5.61v5.12c-7.35-3.91-14.55-5.86-21.61-5.86-7.52,0-13.82,2.56-18.88,7.68-5.06,5.12-7.59,11.52-7.59,19.18s2.54,14.13,7.64,19.14c5.09,5,11.59,7.51,19.49,7.51,6.6,0,13.79-2.07,21.57-6.21v4.86c-7.17,3.79-14.34,5.69-21.48,5.69-9.23,0-16.92-2.96-23.07-8.88-6.15-5.92-9.22-13.29-9.22-22.11s3.14-16.3,9.42-22.26c6.28-5.96,13.76-8.94,22.44-8.94,6.83,0,13.93,1.69,21.31,5.08Z"></path><path d="M240.14,21.24c5.79,0,10.61,1.98,14.48,5.95,3.86,3.96,5.79,8.91,5.79,14.84s-1.93,10.83-5.79,14.78c-3.86,3.95-8.69,5.93-14.48,5.93s-10.63-1.98-14.52-5.93c-3.89-3.95-5.84-8.87-5.84-14.78s1.95-10.88,5.84-14.84c3.89-3.96,8.73-5.95,14.52-5.95Zm0,37.32c4.48,0,8.23-1.57,11.24-4.71,3.01-3.14,4.51-7.08,4.51-11.82s-1.51-8.67-4.54-11.85c-3.02-3.18-6.76-4.77-11.22-4.77s-8.28,1.58-11.3,4.73c-3.02,3.15-4.53,7.12-4.53,11.89s1.51,8.69,4.53,11.82c3.02,3.14,6.79,4.71,11.3,4.71Z"></path><path d="M273.82,22.02v7.03h.17c3.24-5.21,7.48-7.81,12.72-7.81,6.1,0,10.4,3.2,12.89,9.59,3.76-6.39,8.39-9.59,13.89-9.59,4.14,0,7.48,1.48,10.03,4.43,2.54,2.95,3.82,6.87,3.82,11.76v24.52h-4.25v-22.65c0-4.31-.91-7.71-2.73-10.18-1.82-2.47-4.38-3.71-7.68-3.71-2.46,0-4.6,.74-6.42,2.21-1.82,1.48-3.71,3.85-5.64,7.12v27.21h-4.3v-22.74c0-4.43-.95-7.83-2.84-10.22-1.9-2.39-4.43-3.58-7.61-3.58-4.63,0-8.64,2.85-12.02,8.55v27.99h-4.25V22.02h4.25Z"></path><path d="M342.35,22.02v7.03h.17c3.24-5.21,7.48-7.81,12.72-7.81,6.1,0,10.4,3.2,12.89,9.59,3.76-6.39,8.39-9.59,13.89-9.59,4.14,0,7.48,1.48,10.03,4.43,2.54,2.95,3.82,6.87,3.82,11.76v24.52h-4.25v-22.65c0-4.31-.91-7.71-2.73-10.18-1.82-2.47-4.38-3.71-7.68-3.71-2.46,0-4.6,.74-6.42,2.21-1.82,1.48-3.71,3.85-5.64,7.12v27.21h-4.3v-22.74c0-4.43-.95-7.83-2.84-10.22-1.9-2.39-4.43-3.58-7.61-3.58-4.63,0-8.64,2.85-12.02,8.55v27.99h-4.25V22.02h4.25Z"></path><path d="M433.62,61.95v-6.6h-.17c-1.85,2.66-3.75,4.56-5.71,5.68-1.95,1.13-4.43,1.69-7.44,1.69-4.28,0-7.83-1.39-10.63-4.17-2.81-2.78-4.21-6.71-4.21-11.8V22.02h4.25v24.65c0,3.7,1.01,6.61,3.03,8.72,2.03,2.11,4.66,3.17,7.9,3.17,2.78,0,5.14-.63,7.09-1.91,1.95-1.28,3.91-3.47,5.88-6.6V22.02h4.25V61.95h-4.25Z"></path><path d="M453.28,22.02v6.94h.17c3.33-5.15,7.71-7.73,13.15-7.73,4.51,0,8.12,1.45,10.81,4.34,2.69,2.89,4.04,6.9,4.04,12.02v24.35h-4.25v-22.74c0-9.2-3.62-13.8-10.85-13.8-5.29,0-9.65,2.85-13.06,8.55v27.99h-4.25V22.02h4.25Z"></path><path d="M497.59,1.32v7.29h-4.3V1.32h4.3Zm0,20.7V61.95h-4.3V22.02h4.3Z"></path><path d="M517.12,8.78v13.24h11.2v3.47h-11.2v23.74c0,3.82,.31,6.33,.93,7.53,.62,1.2,2.29,1.8,5.01,1.8,2.08,0,4.51-.65,7.29-1.95v4.08c-2.8,1.36-5.55,2.04-8.25,2.04s-4.83-.75-6.6-2.26c-1.77-1.5-2.65-3.59-2.65-6.25V25.49h-10.76v-3.47h10.76V12.52l2.91-3.73h1.35Z"></path><path d="M570.02,22.02l-29.88,60.37h-4.36l13.96-28.2-16.83-32.17h4.47l14.48,27.88,13.8-27.88h4.35Z"></path></g><g><path d="M281.22,73.87l-29.02,30.28,31.8,30.34h-5.96l-31.75-30.29v30.29h-4.69v-60.63h4.69v30.16l29.09-30.16h5.85Z"></path><path d="M292.5,73.87v7.29h-4.3v-7.29h4.3Zm0,20.7v39.93h-4.3v-39.93h4.3Z"></path><path d="M312.03,81.34v13.24h11.2v3.47h-11.2v23.74c0,3.82,.31,6.33,.93,7.53,.62,1.2,2.29,1.8,5.01,1.8,2.08,0,4.51-.65,7.29-1.95v4.08c-2.8,1.36-5.55,2.04-8.25,2.04s-4.83-.75-6.6-2.26c-1.77-1.5-2.65-3.59-2.65-6.25v-28.73h-10.76v-3.47h10.76v-9.5l2.91-3.73h1.35Z"></path><path d="M359.2,95.75v4.73c-3.82-1.68-7.28-2.52-10.37-2.52-4.46,0-8.08,1.55-10.87,4.64-2.79,3.09-4.19,7.12-4.19,12.06s1.4,9.03,4.19,12c2.79,2.96,6.53,4.45,11.22,4.45,3.41,0,7-.76,10.76-2.3v4.43c-3.99,1.36-7.7,2.04-11.11,2.04-5.85,0-10.57-1.85-14.17-5.56-3.6-3.7-5.4-8.56-5.4-14.58s1.82-11.41,5.45-15.38c3.63-3.98,8.27-5.97,13.91-5.97,3.1,0,6.63,.65,10.59,1.95Z"></path><path d="M372.36,73.87v27.65h.17c3.33-5.15,7.71-7.73,13.15-7.73,4.51,0,8.12,1.45,10.81,4.34,2.69,2.89,4.04,6.87,4.04,11.94v24.43h-4.25v-22.74c0-9.2-3.62-13.8-10.85-13.8-5.18,0-9.53,2.85-13.06,8.55v27.99h-4.25v-60.63h4.25Z"></path><path d="M445.7,113.06h-31.47c-.09,.69-.13,1.39-.13,2.08,0,4.45,1.59,8.23,4.77,11.33,3.18,3.1,6.94,4.64,11.28,4.64,5.06,0,10.01-1.98,14.84-5.94v4.82c-4.57,3.53-9.69,5.3-15.36,5.3s-10.52-2-14.28-5.99c-3.76-3.99-5.64-9.07-5.64-15.23,0-5.84,1.74-10.68,5.21-14.52,3.47-3.83,7.84-5.75,13.11-5.75,4.95,0,9.13,1.73,12.54,5.19,3.41,3.46,5.12,8.15,5.12,14.08Zm-30.9-3.43h25.87c-1.5-7.78-5.71-11.67-12.63-11.67-3.27,0-6.1,1.02-8.48,3.06-2.39,2.04-3.97,4.91-4.75,8.62Z"></path><path d="M458.5,94.58v6.94h.17c3.33-5.15,7.71-7.73,13.15-7.73,4.51,0,8.12,1.45,10.81,4.34,2.69,2.89,4.04,6.9,4.04,12.02v24.35h-4.25v-22.74c0-9.2-3.62-13.8-10.85-13.8-5.29,0-9.65,2.85-13.06,8.55v27.99h-4.25v-39.93h4.25Z"></path></g></g><g><g class="cls-6"><path class="cls-3" d="M101.05,28.77c0,7.36-5.97,13.33-13.33,13.33s-13.33-5.97-13.33-13.33,5.97-13.33,13.33-13.33,13.33,5.97,13.33,13.33Z"></path><path class="cls-3" d="M67.94,58.18c-1.25,6.61-3.73,20.17-5.14,27.91v-12.96s0-.03,0-.04c.01-2.24,.33-4.41,.91-6.47h0c.86-3.11,2.31-5.96,4.22-8.44Z"></path><path class="cls-3" d="M112.64,73.33c0-3.89-.89-7.57-2.48-10.85-4.04-8.32-12.57-14.06-22.44-14.06-3.12,0-6.11,.57-8.86,1.63-3.71,1.4-6.99,3.67-9.61,6.55-1.33,6.95-5.43,29.41-6.34,34.42h.43s-.21,1.03-.54,2.76v41.51h22.29c.58-16.19,1.24-34.87,1.24-37.13,0-3.24-1.47-4.56-2.93-6.45-1.44-1.85-2.87-4.26-2.87-9.6,0-2.19,.15-3.29,.75-16.7,.23-4.98,.31-7.97,.4-9.76h0c.11-2.31,.24-2.61,.7-2.61,.7,0,.59,.73,.71,8.15,0,.03,0,.05,.01,.08,.01,1.21,.04,2.59,.08,4.18,.09,3.63,.15,6.46,.22,8.6,.13,4.09,.29,5.69,.76,5.69,.73,0,.73-3.72,.98-14.29,.28-11.42-.02-12.41,.8-12.41s.53,.99,.8,12.41c.26,10.57,.26,14.29,.98,14.29s.73-3.72,.98-14.29c.28-11.42-.02-12.41,.8-12.41s.52,.99,.8,12.41c.25,10.57,.25,14.29,.98,14.29s.72-3.72,.98-14.29c.27-11.42-.02-12.41,.8-12.41s.59,.96,1.1,12.37c.61,13.41,.75,14.51,.75,16.7,0,10.75-5.43,9.61-5.43,16.05,0,2.26,.63,20.94,1.19,37.13h21.97v-22.89c-1.01-2.63-1.92-7.34-1.92-18.19,0-8.16,.81-14.36,1.92-18.93v-1.95Z"></path></g><g class="cls-6"><path class="cls-4" d="M128.39,44.6c0,6.27-5.08,11.35-11.35,11.35s-11.35-5.08-11.35-11.35,5.08-11.35,11.35-11.35,11.35,5.08,11.35,11.35Z"></path><path class="cls-4" d="M117.04,61.33c-2.41,0-4.73,.4-6.88,1.15-8.34,2.85-14.33,10.76-14.33,20.06v52.75h19.11c.22-7.41,.39-13.7,.39-14.93,0-4.65-1.42-4.68-2.69-7.96-1.01-2.63-1.92-7.34-1.92-18.19,0-8.16,.81-14.36,1.92-18.93,1.9-7.84,4.68-10.91,5.72-10.91,.69,0,1.65,1.11,1.65,2.76s-.04,30.57-.04,35.45c0,11.06-1.23,13.44-1.23,17.78,0,1.23,.18,7.52,.4,14.93h19.11v-52.75c0-11.71-9.5-21.21-21.21-21.21Z"></path></g><g class="cls-6"><path class="cls-5" d="M36.16,34.57c0,6.96-5.64,12.6-12.6,12.6s-12.6-5.64-12.6-12.6,5.64-12.6,12.6-12.6,12.6,5.64,12.6,12.6Z"></path><path class="cls-5" d="M47.11,76.71v6.08c-1.03-5.51-2.35-12.57-3.4-18.28,2.16,3.56,3.4,7.74,3.4,12.2Z"></path><path class="cls-5" d="M42.32,62.46c1.46,7.95,3.67,19.81,4.79,25.8v47.03H26c-.52-13.19-1.03-26.05-1.1-27.93-.09-2.42,.87-4.18,2.25-5.92,3.15-3.94,8.45-7.76,8.45-18.85,0-9.79-3.21-18.97-7.98-22.35-1.25-.91-2.62-1.4-4.06-1.4-6.93,0-12.05,11.38-12.05,23.75,0,15.97,11,16.86,10.7,24.77-.07,1.88-.57,14.74-1.09,27.93H0v-58.58c0-13.01,10.55-23.56,23.56-23.56,2.08,0,4.1,.27,6.02,.78,5.15,1.36,9.61,4.41,12.74,8.53Z"></path></g><g class="cls-6"><path class="cls-2" d="M70.32,15.05c0,8.31-6.74,15.05-15.05,15.05s-15.05-6.74-15.05-15.05S46.97,0,55.28,0s15.05,6.74,15.05,15.05Z"></path><path class="cls-2" d="M55.43,47.91c-.02,1.52-.13,17.07-.22,29.17-.17-12.31-.39-28.23-.39-29.27,0-.67,.3-1.03,.38-1.05,0,0,.25,.19,.23,1.15Z"></path><path class="cls-2" d="M60.93,54.11c-.16,2.18-3.79,32.44-4.32,36.91h-.5c.03-4.59,.29-40.74,.32-43.09,.02-1.32-.38-1.83-.72-2.04-.31-.18-.67-.17-1,.01-.54,.31-.89,1.06-.89,1.91,0,1.61,.52,38.73,.58,43.21h-.75c-.47-4.4-3.28-30.58-3.56-33.29-.29-2.89,.39-8.16,2.83-10.87,1-1.1,2.21-1.67,3.6-1.67,1.05,0,1.89,.36,2.58,1.11,1.78,1.92,1.98,5.95,1.83,7.81Z"></path><path class="cls-2" d="M59.04,91.02h-1.43c.61-5.03,4.15-34.62,4.32-36.83,.17-2.16-.09-6.4-2.1-8.57-.87-.95-1.99-1.43-3.31-1.43-1.68,0-3.15,.68-4.35,2-2.64,2.94-3.39,8.57-3.07,11.64,.27,2.7,3.04,28.47,3.55,33.19h-1.46c-.74-4.8-5.2-33.7-5.2-37.64,0-2.61,.59-11.12,8.22-11.12,6.61,0,9.58,8.2,9.58,14.01,0,4.99-4.01,30.17-4.75,34.75Z"></path><path class="cls-2" d="M44.99,53.38c0,4.02,4.36,32.29,5.19,37.64h-1.53c-.26-1.39-.83-4.45-1.54-8.23-1.03-5.51-2.35-12.57-3.4-18.28,0-.01-.01-.02-.01-.02-.89-4.82-1.59-8.68-1.77-9.83-.41-2.58,.3-6.5,2.81-9.44,2.39-2.8,6.03-4.28,10.54-4.28,5.96,0,9.22,2.47,10.9,4.55,2.4,2.96,2.96,6.73,2.44,9.15-.11,.55-.36,1.81-.68,3.54-1.25,6.61-3.73,20.17-5.14,27.91-.41,2.23-.73,3.97-.9,4.93h-1.85c.42-2.59,1.65-10.29,2.75-17.89,0,0,0-.03,0-.04,.01-2.24,.33-4.41,.91-6.47h0c.62-4.69,1.07-8.63,1.07-10.35,0-6.23-3.28-15.01-10.58-15.01-6.8,0-9.22,6.26-9.22,12.12Z"></path><path class="cls-2" d="M83.4,65.35v8.7c-.07-2.14-.13-4.97-.22-8.6-.04-1.59-.07-2.97-.08-4.18,.2,1.34,.3,2.69,.3,4.08Z"></path><path class="cls-2" d="M83.4,91.71v43.58h-24.88c-.19-3.56-.35-7.08-.35-8.83,0-7.88,3.3-25.8,4.63-32.68,.33-1.73,.54-2.76,.54-2.76h-.43c.91-5.01,5.01-27.47,6.34-34.42,.16-.82,.28-1.42,.35-1.75,.52-2.46,.14-6.56-2.64-9.99-1.82-2.24-5.33-4.92-11.68-4.92-4.81,0-8.72,1.6-11.3,4.63-2.91,3.4-3.45,7.65-3.04,10.25,.16,.97,.68,3.87,1.38,7.64,1.46,7.95,3.67,19.81,4.79,25.8,.22,1.17,.4,2.11,.52,2.76h-.42s5.17,25.58,5.17,35.44c0,1.75-.16,5.27-.35,8.83H27.15v-33.85c3.15-3.94,8.45-7.76,8.45-18.85,0-9.79-3.21-18.97-7.98-22.35,.4-2.2,1.06-4.32,1.96-6.31,4.36-9.84,14.23-16.7,25.7-16.7,9.89,0,18.58,5.1,23.58,12.82,1.15,1.74,2.09,3.61,2.82,5.59h0c-.09,1.8-.17,4.79-.4,9.77-.6,13.41-.75,14.51-.75,16.7,0,5.34,1.43,7.75,2.87,9.6Z"></path></g><path class="cls-1" d="M62.81,73.09c.32-2.21,.63-4.41,.91-6.47-.58,2.06-.9,4.23-.91,6.47Z"></path></g></g></g></g></svg>